<svg xmlns="http://www.w3.org/2000/svg" xmlns:xlink="http://www.w3.org/1999/xlink" width="50" zoomAndPan="magnify" viewBox="0 0 37.5 37.499999" height="50" preserveAspectRatio="xMidYMid meet" version="1.0"><defs><clipPath id="eb1c23a7df"><path d="M 0 0 L 37.007812 0 L 37.007812 37.007812 L 0 37.007812 Z M 0 0 " clip-rule="nonzero"/></clipPath><clipPath id="9a0ea2e2e9"><path d="M 5 2.136719 L 8 2.136719 L 8 7 L 5 7 Z M 5 2.136719 " clip-rule="nonzero"/></clipPath><clipPath id="2d53870df8"><path d="M 20 2.136719 L 23 2.136719 L 23 7 L 20 7 Z M 20 2.136719 " clip-rule="nonzero"/></clipPath><clipPath id="48ae3cb672"><path d="M 12 2.136719 L 16 2.136719 L 16 7 L 12 7 Z M 12 2.136719 " clip-rule="nonzero"/></clipPath><clipPath id="acb10e661c"><path d="M 1.957031 4 L 27 4 L 27 11 L 1.957031 11 Z M 1.957031 4 " clip-rule="nonzero"/></clipPath><clipPath id="555981d1a8"><path d="M 1.957031 11 L 27 11 L 27 34.703125 L 1.957031 34.703125 Z M 1.957031 11 " clip-rule="nonzero"/></clipPath><clipPath id="51993a093d"><path d="M 27 2.136719 L 35.261719 2.136719 L 35.261719 9 L 27 9 Z M 27 2.136719 " clip-rule="nonzero"/></clipPath></defs><g clip-path="url(#eb1c23a7df)"><path fill="#ffffff" d="M 0 0 L 37.007812 0 L 37.007812 37.007812 L 0 37.007812 Z M 0 0 " fill-opacity="1" fill-rule="nonzero"/><path fill="#ffffff" d="M 0 0 L 37.007812 0 L 37.007812 37.007812 L 0 37.007812 Z M 0 0 " fill-opacity="1" fill-rule="nonzero"/></g><g clip-path="url(#9a0ea2e2e9)"><path fill="#000000" d="M 5.121094 3.410156 L 5.121094 5.683594 C 5.121094 5.835938 5.152344 5.980469 5.210938 6.121094 C 5.269531 6.257812 5.351562 6.382812 5.460938 6.488281 C 5.566406 6.597656 5.691406 6.679688 5.832031 6.734375 C 5.972656 6.792969 6.121094 6.824219 6.273438 6.824219 C 6.425781 6.824219 6.570312 6.792969 6.714844 6.734375 C 6.855469 6.679688 6.976562 6.597656 7.085938 6.488281 C 7.195312 6.382812 7.277344 6.257812 7.335938 6.121094 C 7.394531 5.980469 7.421875 5.835938 7.421875 5.683594 L 7.421875 3.410156 C 7.421875 3.257812 7.394531 3.113281 7.335938 2.976562 C 7.277344 2.835938 7.195312 2.710938 7.085938 2.605469 C 6.976562 2.5 6.855469 2.417969 6.714844 2.359375 C 6.570312 2.300781 6.425781 2.273438 6.273438 2.273438 C 6.121094 2.273438 5.972656 2.300781 5.832031 2.359375 C 5.691406 2.417969 5.566406 2.5 5.460938 2.605469 C 5.351562 2.710938 5.269531 2.835938 5.210938 2.976562 C 5.152344 3.113281 5.121094 3.257812 5.121094 3.410156 Z M 5.121094 3.410156 " fill-opacity="1" fill-rule="nonzero"/></g><path fill="#000000" d="M 21.816406 24.316406 L 30.496094 9.460938 L 28.5 8.320312 L 19.824219 23.175781 L 20.585938 24.136719 Z M 21.816406 24.316406 " fill-opacity="1" fill-rule="nonzero"/><g clip-path="url(#2d53870df8)"><path fill="#000000" d="M 20.65625 3.410156 L 20.65625 5.683594 C 20.65625 5.835938 20.6875 5.980469 20.746094 6.121094 C 20.800781 6.257812 20.886719 6.382812 20.992188 6.488281 C 21.101562 6.597656 21.226562 6.679688 21.367188 6.734375 C 21.507812 6.792969 21.65625 6.824219 21.808594 6.824219 C 21.960938 6.824219 22.105469 6.792969 22.246094 6.734375 C 22.390625 6.679688 22.511719 6.597656 22.621094 6.488281 C 22.730469 6.382812 22.8125 6.257812 22.871094 6.121094 C 22.929688 5.980469 22.957031 5.835938 22.957031 5.683594 L 22.957031 3.410156 C 22.957031 3.257812 22.929688 3.113281 22.871094 2.976562 C 22.8125 2.835938 22.730469 2.710938 22.621094 2.605469 C 22.511719 2.5 22.390625 2.417969 22.246094 2.359375 C 22.105469 2.300781 21.960938 2.273438 21.808594 2.273438 C 21.65625 2.273438 21.507812 2.300781 21.367188 2.359375 C 21.226562 2.417969 21.101562 2.5 20.992188 2.605469 C 20.886719 2.710938 20.800781 2.835938 20.746094 2.976562 C 20.6875 3.113281 20.65625 3.257812 20.65625 3.410156 Z M 20.65625 3.410156 " fill-opacity="1" fill-rule="nonzero"/></g><g clip-path="url(#48ae3cb672)"><path fill="#000000" d="M 12.890625 3.410156 L 12.890625 5.683594 C 12.890625 5.835938 12.917969 5.980469 12.976562 6.121094 C 13.035156 6.257812 13.117188 6.382812 13.226562 6.488281 C 13.335938 6.597656 13.457031 6.679688 13.601562 6.734375 C 13.742188 6.792969 13.886719 6.824219 14.039062 6.824219 C 14.191406 6.824219 14.339844 6.792969 14.480469 6.734375 C 14.621094 6.679688 14.746094 6.597656 14.855469 6.488281 C 14.960938 6.382812 15.042969 6.257812 15.101562 6.121094 C 15.160156 5.980469 15.191406 5.835938 15.191406 5.683594 L 15.191406 3.410156 C 15.191406 3.257812 15.160156 3.113281 15.101562 2.976562 C 15.042969 2.835938 14.960938 2.710938 14.855469 2.605469 C 14.746094 2.5 14.621094 2.417969 14.480469 2.359375 C 14.339844 2.300781 14.191406 2.273438 14.039062 2.273438 C 13.886719 2.273438 13.742188 2.300781 13.601562 2.359375 C 13.457031 2.417969 13.335938 2.5 13.226562 2.605469 C 13.117188 2.710938 13.035156 2.835938 12.976562 2.976562 C 12.917969 3.113281 12.890625 3.257812 12.890625 3.410156 Z M 12.890625 3.410156 " fill-opacity="1" fill-rule="nonzero"/></g><path fill="#000000" d="M 20.421875 27.171875 L 23.140625 26.144531 L 21.835938 24.890625 L 20.390625 24.683594 C 20.3125 24.671875 20.253906 24.636719 20.207031 24.578125 L 19.308594 23.449219 L 17.550781 22.953125 L 18.011719 25.800781 C 18.515625 25.78125 18.984375 25.890625 19.417969 26.140625 C 19.855469 26.386719 20.1875 26.730469 20.421875 27.171875 Z M 20.421875 27.171875 " fill-opacity="1" fill-rule="nonzero"/><path fill="#000000" d="M 18.359375 27.953125 L 19.886719 27.375 C 19.703125 27.058594 19.453125 26.8125 19.132812 26.628906 C 18.8125 26.449219 18.46875 26.359375 18.101562 26.363281 Z M 18.359375 27.953125 " fill-opacity="1" fill-rule="nonzero"/><path fill="#000000" d="M 18.515625 20.863281 C 18.515625 20.871094 18.511719 20.875 18.507812 20.878906 L 17.628906 22.382812 L 19.339844 22.867188 L 28.003906 8.039062 L 26.507812 7.183594 Z M 18.515625 20.863281 " fill-opacity="1" fill-rule="nonzero"/><path fill="#000000" d="M 33.636719 8.625 L 27.65625 5.214844 L 26.796875 6.691406 L 32.773438 10.105469 Z M 33.636719 8.625 " fill-opacity="1" fill-rule="nonzero"/><g clip-path="url(#acb10e661c)"><path fill="#000000" d="M 26.121094 6.707031 L 26.121094 6.539062 C 26.121094 6.273438 26.070312 6.019531 25.96875 5.777344 C 25.867188 5.53125 25.722656 5.316406 25.53125 5.132812 C 25.34375 4.945312 25.125 4.800781 24.878906 4.699219 C 24.632812 4.597656 24.375 4.546875 24.109375 4.546875 L 23.535156 4.546875 L 23.535156 5.683594 C 23.535156 5.910156 23.488281 6.128906 23.402344 6.335938 C 23.3125 6.546875 23.191406 6.730469 23.027344 6.890625 C 22.867188 7.050781 22.679688 7.175781 22.46875 7.261719 C 22.257812 7.347656 22.035156 7.390625 21.808594 7.390625 C 21.578125 7.390625 21.359375 7.347656 21.148438 7.261719 C 20.933594 7.175781 20.75 7.050781 20.585938 6.890625 C 20.425781 6.730469 20.300781 6.546875 20.210938 6.335938 C 20.125 6.128906 20.082031 5.910156 20.082031 5.683594 L 20.082031 4.546875 L 15.765625 4.546875 L 15.765625 5.683594 C 15.765625 5.910156 15.722656 6.128906 15.632812 6.335938 C 15.546875 6.546875 15.421875 6.730469 15.261719 6.890625 C 15.097656 7.050781 14.910156 7.175781 14.699219 7.261719 C 14.488281 7.347656 14.269531 7.390625 14.039062 7.390625 C 13.8125 7.390625 13.589844 7.347656 13.378906 7.261719 C 13.167969 7.175781 12.980469 7.050781 12.820312 6.890625 C 12.65625 6.730469 12.53125 6.546875 12.445312 6.335938 C 12.359375 6.128906 12.3125 5.910156 12.3125 5.683594 L 12.3125 4.546875 L 8 4.546875 L 8 5.683594 C 8 5.910156 7.953125 6.128906 7.867188 6.335938 C 7.78125 6.546875 7.65625 6.730469 7.492188 6.890625 C 7.332031 7.050781 7.144531 7.175781 6.933594 7.261719 C 6.722656 7.347656 6.5 7.390625 6.273438 7.390625 C 6.042969 7.390625 5.824219 7.347656 5.613281 7.261719 C 5.402344 7.175781 5.214844 7.050781 5.050781 6.890625 C 4.890625 6.730469 4.765625 6.546875 4.679688 6.335938 C 4.589844 6.128906 4.546875 5.910156 4.546875 5.683594 L 4.546875 4.546875 L 3.972656 4.546875 C 3.703125 4.546875 3.449219 4.597656 3.199219 4.699219 C 2.953125 4.800781 2.738281 4.945312 2.546875 5.132812 C 2.359375 5.316406 2.214844 5.53125 2.113281 5.777344 C 2.007812 6.019531 1.957031 6.273438 1.957031 6.539062 L 1.957031 10.804688 L 23.730469 10.804688 Z M 26.121094 6.707031 " fill-opacity="1" fill-rule="nonzero"/></g><path fill="#000000" d="M 32.484375 10.597656 L 30.992188 9.742188 L 22.332031 24.574219 L 23.601562 25.792969 Z M 32.484375 10.597656 " fill-opacity="1" fill-rule="nonzero"/><g clip-path="url(#555981d1a8)"><path fill="#000000" d="M 2.820312 34.691406 L 25.257812 34.691406 C 25.496094 34.691406 25.699219 34.605469 25.871094 34.441406 C 26.039062 34.273438 26.121094 34.074219 26.121094 33.835938 L 26.121094 22.617188 L 23.914062 26.390625 C 23.882812 26.449219 23.832031 26.492188 23.769531 26.515625 L 18.234375 28.609375 C 18.148438 28.640625 18.066406 28.632812 17.988281 28.589844 C 17.910156 28.542969 17.859375 28.476562 17.847656 28.386719 L 17.488281 26.160156 L 4.546875 26.160156 C 4.46875 26.160156 4.398438 26.132812 4.34375 26.074219 C 4.285156 26.019531 4.257812 25.953125 4.257812 25.875 C 4.257812 25.796875 4.285156 25.730469 4.34375 25.671875 C 4.398438 25.617188 4.46875 25.589844 4.546875 25.589844 L 17.394531 25.589844 L 16.914062 22.601562 C 16.902344 22.535156 16.914062 22.472656 16.949219 22.414062 L 17.75 21.039062 L 4.546875 21.039062 C 4.46875 21.039062 4.398438 21.011719 4.34375 20.957031 C 4.285156 20.902344 4.257812 20.835938 4.257812 20.757812 C 4.257812 20.679688 4.285156 20.609375 4.34375 20.554688 C 4.398438 20.5 4.46875 20.472656 4.546875 20.472656 L 18.082031 20.472656 L 20.738281 15.921875 L 8.574219 15.921875 C 8.496094 15.921875 8.425781 15.894531 8.371094 15.839844 C 8.316406 15.785156 8.285156 15.714844 8.285156 15.636719 C 8.285156 15.558594 8.316406 15.492188 8.371094 15.4375 C 8.425781 15.382812 8.496094 15.351562 8.574219 15.351562 L 21.070312 15.351562 L 23.398438 11.371094 L 1.957031 11.371094 L 1.957031 33.835938 C 1.957031 34.074219 2.042969 34.273438 2.210938 34.441406 C 2.378906 34.605469 2.582031 34.691406 2.820312 34.691406 Z M 20.65625 30.710938 C 20.734375 30.710938 20.804688 30.738281 20.859375 30.792969 C 20.917969 30.847656 20.945312 30.914062 20.945312 30.992188 C 20.945312 31.070312 20.917969 31.140625 20.859375 31.195312 C 20.804688 31.25 20.734375 31.277344 20.65625 31.277344 C 20.578125 31.277344 20.507812 31.25 20.453125 31.195312 C 20.398438 31.140625 20.367188 31.070312 20.367188 30.992188 C 20.367188 30.914062 20.398438 30.847656 20.453125 30.792969 C 20.507812 30.738281 20.578125 30.710938 20.65625 30.710938 Z M 4.546875 30.710938 L 18.355469 30.710938 C 18.433594 30.710938 18.503906 30.738281 18.558594 30.792969 C 18.613281 30.847656 18.644531 30.914062 18.644531 30.992188 C 18.644531 31.070312 18.613281 31.140625 18.558594 31.195312 C 18.503906 31.25 18.433594 31.277344 18.355469 31.277344 L 4.546875 31.277344 C 4.46875 31.277344 4.398438 31.25 4.34375 31.195312 C 4.285156 31.140625 4.257812 31.070312 4.257812 30.992188 C 4.257812 30.914062 4.285156 30.847656 4.34375 30.792969 C 4.398438 30.738281 4.46875 30.710938 4.546875 30.710938 Z M 4.546875 30.710938 " fill-opacity="1" fill-rule="nonzero"/></g><g clip-path="url(#51993a093d)"><path fill="#000000" d="M 34.15625 4.324219 L 31.167969 2.621094 C 30.96875 2.507812 30.757812 2.4375 30.527344 2.40625 C 30.300781 2.378906 30.078125 2.390625 29.859375 2.449219 C 29.636719 2.507812 29.433594 2.605469 29.253906 2.746094 C 29.070312 2.882812 28.921875 3.046875 28.808594 3.246094 L 27.945312 4.722656 L 33.925781 8.132812 L 34.789062 6.65625 C 34.902344 6.460938 34.976562 6.25 35.003906 6.027344 C 35.035156 5.800781 35.019531 5.582031 34.960938 5.363281 C 34.902344 5.144531 34.800781 4.945312 34.664062 4.765625 C 34.523438 4.585938 34.355469 4.4375 34.15625 4.324219 Z M 34.15625 4.324219 " fill-opacity="1" fill-rule="nonzero"/></g></svg>