<svg xmlns="http://www.w3.org/2000/svg" xmlns:xlink="http://www.w3.org/1999/xlink" width="50" zoomAndPan="magnify" viewBox="0 0 37.5 37.499999" height="50" preserveAspectRatio="xMidYMid meet" version="1.0"><defs><clipPath id="3511cfc4e4"><path d="M 0 0 L 37.007812 0 L 37.007812 37.007812 L 0 37.007812 Z M 0 0 " clip-rule="nonzero"/></clipPath><clipPath id="444e9bd308"><path d="M 5.855469 1.085938 L 31.019531 1.085938 L 31.019531 35.871094 L 5.855469 35.871094 Z M 5.855469 1.085938 " clip-rule="nonzero"/></clipPath></defs><g clip-path="url(#3511cfc4e4)"><path fill="#ffffff" d="M 0 0 L 37.007812 0 L 37.007812 37.007812 L 0 37.007812 Z M 0 0 " fill-opacity="1" fill-rule="nonzero"/><path fill="#ffffff" d="M 0 0 L 37.007812 0 L 37.007812 37.007812 L 0 37.007812 Z M 0 0 " fill-opacity="1" fill-rule="nonzero"/></g><path fill="#000000" d="M 23.921875 7.046875 L 21.351562 7.046875 C 20.785156 7.046875 20.328125 6.585938 20.328125 6.019531 C 20.328125 4.972656 19.480469 4.121094 18.4375 4.121094 C 17.394531 4.121094 16.542969 4.972656 16.542969 6.019531 C 16.542969 6.585938 16.085938 7.046875 15.523438 7.046875 L 12.953125 7.046875 L 12.953125 9.402344 L 23.921875 9.402344 L 23.921875 7.046875 " fill-opacity="1" fill-rule="nonzero"/><g clip-path="url(#444e9bd308)"><path fill="#000000" d="M 30.027344 33.863281 C 30.027344 34.429688 29.570312 34.886719 29.003906 34.886719 L 7.867188 34.886719 C 7.304688 34.886719 6.847656 34.429688 6.847656 33.863281 L 6.847656 8.222656 C 6.847656 7.65625 7.304688 7.199219 7.867188 7.199219 L 10.910156 7.199219 L 10.910156 6.019531 C 10.910156 5.453125 11.367188 4.996094 11.929688 4.996094 L 14.636719 4.996094 C 15.085938 3.3125 16.621094 2.070312 18.4375 2.070312 C 20.253906 2.070312 21.785156 3.3125 22.238281 4.996094 L 24.941406 4.996094 C 25.507812 4.996094 25.964844 5.453125 25.964844 6.019531 L 25.964844 7.199219 L 29.003906 7.199219 C 29.570312 7.199219 30.027344 7.65625 30.027344 8.222656 Z M 29.003906 6.214844 L 26.945312 6.214844 L 26.945312 6.019531 C 26.945312 4.914062 26.046875 4.011719 24.941406 4.011719 L 22.925781 4.011719 C 22.148438 2.257812 20.394531 1.085938 18.4375 1.085938 C 16.476562 1.085938 14.726562 2.257812 13.945312 4.011719 L 11.929688 4.011719 C 10.828125 4.011719 9.929688 4.914062 9.929688 6.019531 L 9.929688 6.214844 L 7.867188 6.214844 C 6.765625 6.214844 5.867188 7.117188 5.867188 8.222656 L 5.867188 33.863281 C 5.867188 34.972656 6.765625 35.871094 7.867188 35.871094 L 29.003906 35.871094 C 30.109375 35.871094 31.007812 34.972656 31.007812 33.863281 L 31.007812 8.222656 C 31.007812 7.117188 30.109375 6.214844 29.003906 6.214844 " fill-opacity="1" fill-rule="nonzero"/></g><path fill="#000000" d="M 22.726562 16.996094 L 14.144531 16.996094 C 13.582031 16.996094 13.125 16.535156 13.125 15.96875 C 13.125 15.402344 13.582031 14.945312 14.144531 14.945312 L 22.726562 14.945312 C 23.292969 14.945312 23.75 15.402344 23.75 15.96875 C 23.75 16.535156 23.292969 16.996094 22.726562 16.996094 Z M 22.726562 21.113281 L 14.144531 21.113281 C 13.582031 21.113281 13.125 20.652344 13.125 20.085938 C 13.125 19.519531 13.582031 19.0625 14.144531 19.0625 L 22.726562 19.0625 C 23.292969 19.0625 23.75 19.519531 23.75 20.085938 C 23.75 20.652344 23.292969 21.113281 22.726562 21.113281 Z M 22.726562 25.226562 L 14.144531 25.226562 C 13.582031 25.226562 13.125 24.769531 13.125 24.203125 C 13.125 23.636719 13.582031 23.175781 14.144531 23.175781 L 22.726562 23.175781 C 23.292969 23.175781 23.75 23.636719 23.75 24.203125 C 23.75 24.769531 23.292969 25.226562 22.726562 25.226562 Z M 22.726562 29.34375 L 14.144531 29.34375 C 13.582031 29.34375 13.125 28.886719 13.125 28.320312 C 13.125 27.753906 13.582031 27.292969 14.144531 27.292969 L 22.726562 27.292969 C 23.292969 27.292969 23.75 27.753906 23.75 28.320312 C 23.75 28.886719 23.292969 29.34375 22.726562 29.34375 Z M 25.964844 10.425781 C 25.964844 10.992188 25.507812 11.453125 24.941406 11.453125 L 11.929688 11.453125 C 11.367188 11.453125 10.910156 10.992188 10.910156 10.425781 L 10.910156 9.25 L 8.890625 9.25 L 8.890625 32.835938 L 27.984375 32.835938 L 27.984375 9.25 L 25.964844 9.25 L 25.964844 10.425781 " fill-opacity="1" fill-rule="nonzero"/></svg>