<svg xmlns="http://www.w3.org/2000/svg" xmlns:xlink="http://www.w3.org/1999/xlink" width="50" zoomAndPan="magnify" viewBox="0 0 37.5 37.499999" height="50" preserveAspectRatio="xMidYMid meet" version="1.0"><defs><clipPath id="7ea9a6ea62"><path d="M 14 1.90625 L 23 1.90625 L 23 7 L 14 7 Z M 14 1.90625 " clip-rule="nonzero"/></clipPath><clipPath id="8be0dfcd39"><path d="M 6.597656 5 L 30.28125 5 L 30.28125 35.214844 L 6.597656 35.214844 Z M 6.597656 5 " clip-rule="nonzero"/></clipPath></defs><g clip-path="url(#7ea9a6ea62)"><path fill="#000000" d="M 22.648438 6.65625 L 22.648438 4.011719 L 20.589844 4.011719 C 20.421875 4.011719 20.277344 3.953125 20.160156 3.835938 C 20.039062 3.71875 19.972656 3.574219 19.96875 3.40625 C 19.960938 3.207031 19.917969 3.015625 19.835938 2.832031 C 19.753906 2.648438 19.644531 2.488281 19.5 2.347656 C 19.359375 2.210938 19.195312 2.101562 19.011719 2.027344 C 18.828125 1.953125 18.636719 1.914062 18.4375 1.914062 C 18.238281 1.914062 18.046875 1.953125 17.863281 2.027344 C 17.679688 2.101562 17.519531 2.210938 17.375 2.347656 C 17.230469 2.488281 17.121094 2.648438 17.039062 2.832031 C 16.960938 3.015625 16.914062 3.207031 16.90625 3.40625 C 16.902344 3.574219 16.839844 3.71875 16.71875 3.835938 C 16.597656 3.953125 16.453125 4.011719 16.285156 4.011719 L 14.226562 4.011719 L 14.226562 6.65625 Z M 22.648438 6.65625 " fill-opacity="1" fill-rule="nonzero"/></g><g clip-path="url(#8be0dfcd39)"><path fill="#000000" d="M 23.894531 7.285156 C 23.894531 7.457031 23.832031 7.605469 23.710938 7.726562 C 23.589844 7.851562 23.445312 7.914062 23.273438 7.914062 L 13.605469 7.914062 C 13.433594 7.914062 13.285156 7.851562 13.164062 7.726562 C 13.042969 7.605469 12.980469 7.457031 12.980469 7.285156 L 12.980469 5.96875 L 6.597656 5.96875 L 6.597656 35.210938 L 30.28125 35.210938 L 30.28125 5.96875 L 23.894531 5.96875 Z M 23.894531 7.285156 " fill-opacity="1" fill-rule="nonzero"/></g></svg>