<svg xmlns="http://www.w3.org/2000/svg" xmlns:xlink="http://www.w3.org/1999/xlink" width="50" zoomAndPan="magnify" viewBox="0 0 37.5 37.499999" height="50" preserveAspectRatio="xMidYMid meet" version="1.0"><defs><clipPath id="127eea7bd4"><path d="M 1 2.445312 L 36 2.445312 L 36 18 L 1 18 Z M 1 2.445312 " clip-rule="nonzero"/></clipPath><clipPath id="db3872575c"><path d="M 5 10 L 33 10 L 33 34.273438 L 5 34.273438 Z M 5 10 " clip-rule="nonzero"/></clipPath></defs><g clip-path="url(#127eea7bd4)"><path fill="#000000" d="M 34.867188 13.625 L 29.402344 9.660156 L 29.402344 4.929688 C 29.402344 4.1875 28.789062 3.589844 28.039062 3.589844 L 25.828125 3.589844 C 25.074219 3.589844 24.464844 4.191406 24.464844 4.929688 L 24.464844 6.078125 L 20.296875 3.054688 C 19.390625 2.398438 17.910156 2.398438 17.007812 3.054688 L 2.433594 13.625 C 1.527344 14.28125 1.335938 15.550781 2 16.441406 L 2.402344 16.980469 C 3.066406 17.875 4.355469 18.066406 5.257812 17.410156 L 17.007812 8.886719 C 17.910156 8.230469 19.390625 8.230469 20.296875 8.886719 L 32.042969 17.410156 C 32.949219 18.066406 34.234375 17.871094 34.898438 16.980469 L 35.300781 16.441406 C 35.96875 15.550781 35.773438 14.28125 34.867188 13.625 Z M 34.867188 13.625 " fill-opacity="1" fill-rule="nonzero"/></g><g clip-path="url(#db3872575c)"><path fill="#000000" d="M 30.507812 18.152344 L 20.292969 10.707031 C 19.390625 10.050781 17.914062 10.050781 17.007812 10.707031 L 6.792969 18.152344 C 5.890625 18.8125 5.152344 19.773438 5.152344 20.296875 L 5.152344 31.089844 C 5.152344 32.839844 6.675781 34.261719 8.554688 34.261719 L 14.792969 34.261719 L 14.792969 24.714844 C 14.792969 23.976562 15.40625 23.375 16.152344 23.375 L 21.148438 23.375 C 21.894531 23.375 22.507812 23.976562 22.507812 24.714844 L 22.507812 34.261719 L 28.746094 34.261719 C 30.625 34.261719 32.148438 32.839844 32.148438 31.089844 L 32.148438 20.296875 C 32.148438 19.773438 31.414062 18.8125 30.507812 18.152344 Z M 30.507812 18.152344 " fill-opacity="1" fill-rule="nonzero"/></g></svg>