<svg xmlns="http://www.w3.org/2000/svg" xmlns:xlink="http://www.w3.org/1999/xlink" width="50" zoomAndPan="magnify" viewBox="0 0 37.5 37.499999" height="50" preserveAspectRatio="xMidYMid meet" version="1.0"><defs><clipPath id="ee49e6a386"><path d="M 4 16 L 25 16 L 25 36.234375 L 4 36.234375 Z M 4 16 " clip-rule="nonzero"/></clipPath><clipPath id="f554213bde"><path d="M 8 2.191406 L 33 2.191406 L 33 15 L 8 15 Z M 8 2.191406 " clip-rule="nonzero"/></clipPath><clipPath id="5a8f2ee845"><path d="M 23 3 L 33.640625 3 L 33.640625 21 L 23 21 Z M 23 3 " clip-rule="nonzero"/></clipPath></defs><g clip-path="url(#ee49e6a386)"><path fill="#000000" d="M 23.136719 30.582031 L 20.921875 29.253906 C 20.679688 29.109375 20.417969 29.027344 20.136719 29.003906 C 19.855469 28.980469 19.585938 29.019531 19.320312 29.121094 C 19.058594 29.222656 18.832031 29.375 18.636719 29.582031 C 18.445312 29.789062 18.308594 30.023438 18.222656 30.292969 C 18.074219 30.816406 17.746094 31.175781 17.234375 31.363281 C 16.746094 31.558594 16.277344 31.515625 15.828125 31.238281 C 12.960938 29.523438 10.667969 27.230469 8.953125 24.363281 C 8.824219 24.140625 8.75 23.902344 8.734375 23.644531 C 8.714844 23.386719 8.757812 23.140625 8.859375 22.90625 C 8.957031 22.667969 9.105469 22.464844 9.300781 22.300781 C 9.496094 22.132812 9.71875 22.019531 9.964844 21.957031 C 10.105469 21.90625 10.234375 21.84375 10.359375 21.761719 C 10.480469 21.683594 10.59375 21.589844 10.695312 21.480469 C 10.796875 21.375 10.882812 21.257812 10.957031 21.132812 C 11.03125 21.003906 11.089844 20.871094 11.128906 20.730469 C 11.171875 20.585938 11.199219 20.445312 11.207031 20.296875 C 11.214844 20.148438 11.203125 20.003906 11.179688 19.859375 C 11.152344 19.714844 11.109375 19.574219 11.050781 19.441406 C 10.992188 19.304688 10.917969 19.179688 10.828125 19.0625 L 9.628906 17.058594 C 9.503906 16.851562 9.34375 16.675781 9.148438 16.53125 C 8.953125 16.386719 8.738281 16.289062 8.503906 16.226562 C 8.265625 16.167969 8.03125 16.15625 7.789062 16.191406 C 7.550781 16.230469 7.328125 16.308594 7.121094 16.433594 C 6.78125 16.636719 6.464844 16.867188 6.171875 17.132812 C 5.878906 17.394531 5.609375 17.683594 5.371094 17.996094 C 5.132812 18.308594 4.925781 18.644531 4.746094 18.996094 C 4.570312 19.347656 4.429688 19.714844 4.324219 20.09375 C 4.214844 20.476562 4.144531 20.863281 4.113281 21.253906 C 4.078125 21.648438 4.082031 22.042969 4.121094 22.433594 C 4.164062 22.828125 4.242188 23.210938 4.355469 23.589844 C 4.46875 23.96875 4.617188 24.332031 4.796875 24.679688 C 6 26.976562 7.515625 29.042969 9.347656 30.871094 C 11.179688 32.703125 13.246094 34.21875 15.539062 35.417969 C 16.441406 35.890625 17.402344 36.125 18.417969 36.125 C 19.511719 36.121094 20.53125 35.847656 21.484375 35.308594 C 22.433594 34.769531 23.191406 34.03125 23.753906 33.09375 C 23.878906 32.886719 23.960938 32.664062 23.996094 32.421875 C 24.03125 32.183594 24.023438 31.945312 23.964844 31.710938 C 23.90625 31.472656 23.804688 31.257812 23.660156 31.0625 C 23.519531 30.867188 23.34375 30.707031 23.136719 30.582031 Z M 23.136719 30.582031 " fill-opacity="1" fill-rule="nonzero"/></g><g clip-path="url(#f554213bde)"><path fill="#000000" d="M 18.867188 13.460938 C 19.078125 13.667969 19.316406 13.828125 19.585938 13.9375 C 19.855469 14.050781 20.136719 14.105469 20.429688 14.105469 C 20.722656 14.105469 21.003906 14.050781 21.273438 13.9375 C 21.542969 13.828125 21.78125 13.667969 21.992188 13.460938 C 22.390625 13.0625 32.359375 2.726562 32.4375 2.664062 C 32.042969 2.417969 31.613281 2.296875 31.148438 2.300781 L 9.710938 2.300781 C 9.246094 2.300781 8.816406 2.421875 8.421875 2.664062 C 8.195312 2.476562 18.6875 13.238281 18.867188 13.460938 Z M 18.867188 13.460938 " fill-opacity="1" fill-rule="nonzero"/></g><path fill="#000000" d="M 22.859375 14.359375 C 22.539062 14.683594 22.167969 14.933594 21.75 15.109375 C 21.328125 15.285156 20.890625 15.375 20.433594 15.375 C 19.976562 15.375 19.539062 15.289062 19.117188 15.113281 C 18.699219 14.9375 18.328125 14.6875 18.003906 14.363281 L 12.199219 18.957031 C 12.4375 19.5 12.515625 20.066406 12.429688 20.652344 C 12.34375 21.238281 12.113281 21.757812 11.730469 22.214844 L 31.148438 22.214844 C 31.589844 22.214844 31.996094 22.105469 32.375 21.882812 Z M 22.859375 14.359375 " fill-opacity="1" fill-rule="nonzero"/><path fill="#000000" d="M 8.058594 14.914062 C 8.597656 14.917969 9.105469 15.054688 9.574219 15.320312 C 10.046875 15.585938 10.421875 15.949219 10.703125 16.414062 L 11.566406 17.855469 L 17.125 13.460938 C 16.640625 12.957031 7.738281 3.761719 7.550781 3.566406 C 7.332031 3.945312 7.222656 4.355469 7.226562 4.792969 L 7.226562 15.035156 C 7.496094 14.949219 7.773438 14.910156 8.058594 14.914062 Z M 8.058594 14.914062 " fill-opacity="1" fill-rule="nonzero"/><g clip-path="url(#5a8f2ee845)"><path fill="#000000" d="M 33.308594 3.566406 C 33.15625 3.742188 24.199219 12.972656 23.742188 13.457031 C 24.324219 13.921875 32.953125 20.734375 33.277344 21 C 33.515625 20.601562 33.632812 20.175781 33.632812 19.714844 L 33.632812 4.792969 C 33.632812 4.355469 33.523438 3.945312 33.308594 3.566406 Z M 33.308594 3.566406 " fill-opacity="1" fill-rule="nonzero"/></g></svg>