<svg xmlns="http://www.w3.org/2000/svg" xmlns:xlink="http://www.w3.org/1999/xlink" width="50" zoomAndPan="magnify" viewBox="0 0 37.5 37.499999" height="50" preserveAspectRatio="xMidYMid meet" version="1.0"><defs><clipPath id="6ec7fc5af8"><path d="M 2.183594 2.183594 L 34.75 2.183594 L 34.75 34.75 L 2.183594 34.75 Z M 2.183594 2.183594 " clip-rule="nonzero"/></clipPath></defs><g clip-path="url(#6ec7fc5af8)"><path fill="#000000" d="M 9.605469 11.105469 C 9.605469 10.519531 9.664062 9.941406 9.777344 9.367188 C 9.894531 8.792969 10.0625 8.238281 10.285156 7.699219 C 10.511719 7.15625 10.785156 6.644531 11.109375 6.160156 C 11.433594 5.671875 11.804688 5.222656 12.21875 4.808594 C 12.628906 4.394531 13.082031 4.027344 13.566406 3.703125 C 14.050781 3.378906 14.566406 3.101562 15.105469 2.878906 C 15.644531 2.65625 16.203125 2.484375 16.773438 2.371094 C 17.347656 2.257812 17.925781 2.199219 18.511719 2.199219 C 30.285156 2.613281 30.308594 19.558594 18.542969 20.011719 C 17.957031 20.011719 17.375 19.957031 16.800781 19.84375 C 16.226562 19.730469 15.667969 19.5625 15.125 19.339844 C 14.585938 19.117188 14.070312 18.84375 13.582031 18.519531 C 13.09375 18.191406 12.644531 17.824219 12.226562 17.410156 C 11.8125 16.996094 11.441406 16.546875 11.117188 16.058594 C 10.789062 15.574219 10.515625 15.058594 10.289062 14.519531 C 10.0625 13.976562 9.894531 13.421875 9.777344 12.84375 C 9.664062 12.269531 9.605469 11.691406 9.605469 11.105469 Z M 27.527344 20.015625 C 27.285156 19.867188 27.019531 19.796875 26.738281 19.800781 C 26.453125 19.808594 26.191406 19.894531 25.957031 20.054688 C 25.425781 20.484375 24.863281 20.867188 24.265625 21.203125 C 23.667969 21.535156 23.046875 21.816406 22.398438 22.042969 C 21.753906 22.269531 21.09375 22.441406 20.417969 22.554688 C 19.742188 22.664062 19.0625 22.71875 18.375 22.714844 C 17.691406 22.710938 17.011719 22.644531 16.339844 22.523438 C 15.664062 22.402344 15.007812 22.222656 14.363281 21.988281 C 13.722656 21.75 13.101562 21.460938 12.511719 21.121094 C 11.917969 20.777344 11.359375 20.386719 10.832031 19.949219 C 10.40625 19.75 9.988281 19.773438 9.585938 20.011719 C 8.484375 20.746094 7.492188 21.597656 6.601562 22.578125 C 5.714844 23.554688 4.957031 24.625 4.335938 25.792969 C 3.710938 26.957031 3.242188 28.179688 2.921875 29.460938 C 2.601562 30.742188 2.441406 32.046875 2.445312 33.367188 C 2.445312 33.546875 2.476562 33.722656 2.546875 33.890625 C 2.617188 34.058594 2.714844 34.207031 2.84375 34.335938 C 2.972656 34.460938 3.121094 34.5625 3.289062 34.632812 C 3.457031 34.699219 3.628906 34.734375 3.8125 34.734375 L 33.257812 34.734375 C 33.4375 34.734375 33.613281 34.699219 33.78125 34.632812 C 33.949219 34.5625 34.097656 34.460938 34.226562 34.335938 C 34.351562 34.207031 34.453125 34.058594 34.523438 33.890625 C 34.589844 33.722656 34.625 33.546875 34.625 33.367188 C 34.625 32.046875 34.464844 30.75 34.144531 29.472656 C 33.824219 28.191406 33.355469 26.972656 32.738281 25.808594 C 32.117188 24.644531 31.367188 23.570312 30.488281 22.589844 C 29.605469 21.613281 28.617188 20.753906 27.527344 20.015625 Z M 27.527344 20.015625 " fill-opacity="1" fill-rule="nonzero"/></g></svg>